# xmcd CD database file
#
# Track frame offsets:
#	150
#	11082
#	31677
#	42288
#	61379
#	92533
#	123914
#
# Disc length: 1865 seconds
#
# Revision: 1
# Processed by: cddbd v1.5.2PL0 Copyright (c) Steve Scherf et al.
# Submitted via: CDex 1.51
#
DISCID=4c074707
DTITLE=Dizzy Bird Getz - In Concert... Carnegie Hall
DYEAR=1974
DGENRE=Jazz
TTITLE0=Easy to Love - Parker and Strings
TTITLE1=Body and Soul - Gillespie
TTITLE2=52nd St. Theme - Parker and Gillespie
TTITLE3=Dizzy Atmosphere - Gillespie, Parker and Charles
TTITLE4=There Will Never Be Another You - Getz Quintet
TTITLE5=Strike Up the Band - Getz Quintet
TTITLE6=Just Friends - Parker and Strings
EXTD=YEAR: 1974
EXTT0=
EXTT1=
EXTT2=
EXTT3=
EXTT4=
EXTT5=
EXTT6=
PLAYORDER=
